PathFileType	4	(X/Y/Z)	Patient4_TMGait_0pt7_01_right_06.trc.trc
DataRate	CameraRate	NumFrames	NumMarkers	Units	OrigDataRate	OrigDataStartFrame	OrigNumFrames
85.365853658537	85.365853658537	5	33	mm	85.365853658537	106	       141
Frame#	Time	Sacral			L.Shoulder			Chest			R.Shoulder			Neck			R.ASIS			L.ASIS			R.Thigh.Superior			R.Thigh.Lateral			R.Thigh.Inferior			R.Patella			L.Thigh.Superior			L.Thigh.Lateral			L.Thigh.Inferior			L.Patella			L.Shank.Superior			L.Shank.Lateral			L.Shank.Inferior			R.Shank.Superior			R.Shank.Lateral			R.Shank.Inferior			R.Heel			R.Midfoot.Superior			R.Midfoot.Lateral			R.Toe			L.Heel			L.Midfoot.Lateral			L.Midfoot.Superior			L.Toe			L.Elbow			L.Wrist			R.Elbow			R.Wrist			
		X1	Y1	Z1	X2	Y2	Z2	X3	Y3	Z3	X4	Y4	Z4	X5	Y5	Z5	X6	Y6	Z6	X7	Y7	Z7	X8	Y8	Z8	X9	Y9	Z9	X10	Y10	Z10	X11	Y11	Z11	X12	Y12	Z12	X13	Y13	Z13	X14	Y14	Z14	X15	Y15	Z15	X16	Y16	Z16	X17	Y17	Z17	X18	Y18	Z18	X19	Y19	Z19	X20	Y20	Z20	X21	Y21	Z21	X22	Y22	Z22	X23	Y23	Z23	X24	Y24	Z24	X25	Y25	Z25	X26	Y26	Z26	X27	Y27	Z27	X28	Y28	Z28	X29	Y29	Z29	X30	Y30	Z30	X31	Y31	Z31	X32	Y32	Z32	X33	Y33	Z33	

106	7.580000000000	752.828109299679	1013.983491290448	460.976838729107	977.535969606299	1434.685535369710	285.078642369227	1062.339691331084	1358.594792254643	454.454184928488	970.897243410451	1441.959471186558	619.768869003185	970.946622685944	1495.172488019524	440.545602904656	972.044775511117	952.635857718454	592.614123300844	974.894787501629	961.302928085594	317.762903926581	1074.974073201159	815.533558765977	565.216743554057	1060.653541481110	692.264377581297	644.416315676847	1158.134302714422	670.222040145671	567.888247493315	1201.632445541128	565.648455005020	593.083735617762	1011.326752332917	748.527920639716	353.271814465756	918.953103300742	638.266352086805	288.310450260317	989.992068520567	555.987048649416	359.839330907238	984.232068582934	488.200132194925	370.878559612467	959.771198810538	417.711614523384	360.624834609427	873.737070952768	302.972473246184	306.612523253851	918.269003099974	193.095075648876	383.073752151367	1146.955715363469	475.160102216656	599.230898071128	1042.164141446473	402.764317663926	658.763825634021	1059.695361441661	294.289345105487	610.128531116820	884.859469376096	183.200838483384	580.819977794178	1062.161022437842	164.481983112371	622.153119497629	955.618577103430	137.774369193074	653.886294156298	1150.758842233999	69.572971377043	647.846460122281	787.793929755096	37.443838693895	420.617936690723	863.860512245963	35.558464163828	341.443899462541	945.899576839950	96.253233753619	371.435645575254	1075.473433141133	44.865903010488	345.707657748867	959.993290539691	1091.227184473482	152.119671475569	1135.878766007869	899.132193928953	157.900233406434	894.101988558247	1098.435926124784	734.575961393583	1005.127267577964	861.803595130378	743.081831441991	
107	7.591714285714	752.328275904074	1013.969795043483	460.623323803968	978.340798780431	1435.023030684610	285.757364346280	1062.483927156422	1358.186147545432	455.138303894541	970.665608859906	1441.237025200258	620.331420032841	971.262593538159	1494.990956346148	441.267712985201	971.539163278345	952.572169355821	592.655615000738	974.055019497635	960.897182347366	317.659913490787	1074.272143411660	816.078153894930	565.361884330103	1060.116955344867	692.626425201718	644.699273334612	1157.398858669419	670.635424669130	568.204371162568	1202.020336285061	568.520399467829	593.527826937645	1008.761408478470	747.515360834449	353.385903133659	915.235827817163	638.053337349455	288.055316699683	985.111641450827	555.024177006644	359.653903434667	978.688274443203	487.435349701534	370.671979476683	953.860286457676	417.111121564584	360.534533519460	867.161334799185	302.871901629118	306.550265226591	910.746219132962	192.729552385881	383.130188868457	1152.240700002505	476.724824972729	600.246189188128	1053.360442417752	398.104326781491	661.431985973073	1077.330780576114	290.809483229775	612.796366141891	910.098435957997	168.665830720279	585.744149225888	1088.454891534193	161.483628600761	625.550925437458	984.194143350383	128.179762653851	658.210444583663	1182.938691249108	72.405092256364	650.662532484025	779.603560269078	37.510000446626	420.573943993298	855.642068067911	35.568375393324	341.467513974573	937.783430339361	96.162833763074	371.488264670851	1067.323307248683	44.499512875061	345.695115613455	962.951862506185	1092.304140704295	151.339956556172	1152.018566422102	913.477695305299	157.243103922906	888.217641899358	1098.854616723973	734.801031120521	978.555035594616	853.022835954268	745.689543912111	
108	7.603428571429	752.059187915000	1013.896334557588	460.452577510722	979.026563361064	1435.296117113359	286.551529075330	1062.692692540380	1357.735852506509	455.855179070291	970.681916167777	1440.466846735297	621.059535419227	971.621092686372	1494.753846091219	442.106993021250	971.282844372130	952.330517171959	592.715477666028	973.369366496828	960.479685458993	317.598292243170	1073.320853029369	815.679157152827	565.577156676556	1058.734592301803	692.103319604017	645.105676263896	1155.715714896887	669.766653981205	568.655920920629	1201.159382641529	570.325935992909	593.976289460095	1006.331265026898	746.478886268724	353.520810663756	911.613666356617	637.812232177536	287.859514423714	980.321216631382	554.052600181163	359.496556455483	973.224440286017	486.647121632974	370.498444946222	948.014014798555	416.494267364815	360.478431546471	860.627656720381	302.775940721830	306.521582012592	903.271694554936	192.364631248651	383.206081459804	1156.400006902959	477.612786989363	601.347173435688	1064.048738842125	393.071703985033	664.337469674637	1094.510469201903	287.403525293856	615.616615576019	935.913720835805	154.376661325505	590.951992701235	1114.542646619835	159.128947842164	629.052193991385	1013.097511251308	119.201684134152	662.725369892674	1214.650584236171	76.468269899360	653.461733360517	771.410900961655	37.594993680985	420.530190337061	847.423739156911	35.587302763835	341.497656683572	929.667330449387	96.074761997428	371.547989729011	1059.165050408168	44.140058608485	345.683539029215	965.785384756919	1093.315283683772	150.809601054360	1167.024899569335	928.764701670091	157.043465221037	882.487283916514	1099.462486081998	735.147991263215	952.678583331816	846.647557131788	747.749068879064	
109	7.615142857143	752.042918460940	1013.737190028475	460.484942305437	979.557100545517	1435.511496816430	287.465071596539	1062.953594496744	1357.257328951848	456.599477607820	970.939111557759	1439.650966505309	621.944946242097	972.000368524320	1494.462366216016	443.068633711476	971.319533397368	951.920779304004	592.796505755366	972.897697346416	960.088359852932	317.576403485668	1072.166412331627	814.321399418013	565.873801228443	1056.564751445914	690.712575322918	645.672716713521	1153.128020483254	667.649805046945	569.232765341870	1199.101582165621	571.069466340130	594.395711450675	1004.059643406416	745.415502801301	353.677943138955	908.099276823162	637.541900703991	287.729571962808	975.633589931596	553.070421956095	359.378101897439	967.848977924556	485.826427104360	370.370808428731	942.242204015097	415.857278052006	360.463466954410	854.141957669559	302.685955938428	306.532638161223	895.849818862557	192.001627584948	383.302796119005	1159.416256207807	477.832540445763	602.520413016642	1074.066305659052	387.785926222529	667.392394539447	1110.973136003482	284.169773138045	618.502154431285	961.907709665245	140.599704206295	596.247534916352	1140.003936780351	157.511949809931	632.561052484921	1041.856058811213	111.031863739796	667.287423196948	1245.380906410886	81.774875574121	656.205833160642	763.214044738421	37.699437693334	420.493065801863	839.205030484851	35.618029605956	341.536218412556	921.550770495939	95.990685238386	371.615520142960	1050.996790837661	43.788712463267	345.674056246603	968.570336956992	1094.272862252980	150.509076849202	1180.795662863024	944.837992544121	157.298705632085	876.768157271690	1100.312825166559	735.592647219814	927.837140050989	842.547803425342	749.240160831227	
110	7.626857142857	752.295904000902	1013.459119235864	460.739182568869	979.900060554974	1435.671145979283	288.499669732928	1063.251077780548	1356.763367427915	457.368433696394	971.412728456217	1438.791335865618	622.974047580329	972.372046237401	1494.114171994667	444.153979171819	971.687290637349	951.351548097590	592.907849998577	972.694947980792	959.747141049683	317.595300226396	1070.874314582853	812.027306568178	566.274484478995	1053.709024884780	688.510534012977	646.435632574995	1149.719787483630	664.377231258129	569.918412095395	1195.935281975688	570.794534831169	594.762679941288	1001.964945304754	744.317462351637	353.861447254364	904.705591875937	637.239299423934	287.672788045350	971.062020071216	552.073192728895	359.309419356417	962.572896891482	484.965865086584	370.299114024714	936.555516647198	415.195010216178	360.496040443305	847.710114015729	302.603099943460	306.588731521272	888.482007973772	191.640457768401	383.420721465278	1161.301535042007	477.401257997206	603.752581487243	1083.220034498060	382.351354310885	670.483843598606	1126.422846066150	281.162072469448	621.353276723211	987.563382173750	127.567374260494	601.385104443436	1164.348408678573	156.630851966260	635.971576804136	1069.879838096677	103.781721189031	671.718064259618	1274.548304361605	88.182580588404	658.872163765491	755.013246472816	37.822598139157	420.468514318252	830.985891196760	35.662618443219	341.585046582909	913.434273857566	95.911774783381	371.690933560818	1042.817771973305	43.445463729071	345.666989079054	971.352864006481	1095.186811384579	150.416060723713	1193.249775246162	961.519999043801	158.001385455228	870.951810146099	1101.457772309836	736.124583278409	904.309208482369	840.516600549966	750.168934130168	
